<?xml version="1.0" standalone="no"?>
<!DOCTYPE svg PUBLIC "-//W3C//DTD SVG 20010904//EN"
 "http://www.w3.org/TR/2001/REC-SVG-20010904/DTD/svg10.dtd">
<svg version="1.0" xmlns="http://www.w3.org/2000/svg"
 width="1082.000000pt" height="1080.000000pt" viewBox="0 0 1082.000000 1080.000000"
 preserveAspectRatio="xMidYMid meet">

<g transform="translate(0.000000,1080.000000) scale(0.100000,-0.100000)"
fill="#000000" stroke="none">
<path d="M0 5400 l0 -5400 5410 0 5410 0 0 5400 0 5400 -5410 0 -5410 0 0
-5400z m2605 1495 c158 -30 264 -84 353 -179 87 -94 107 -148 107 -301 0 -151
-19 -204 -105 -298 -61 -66 -175 -136 -247 -152 -18 -3 -33 -11 -33 -16 0 -12
352 -589 405 -664 59 -82 112 -132 160 -148 28 -10 41 -21 43 -35 l3 -22 -273
0 -273 1 -255 419 -255 420 -43 0 -43 0 3 -332 c3 -316 4 -335 24 -373 30 -57
71 -78 165 -83 75 -4 79 -6 79 -28 l0 -24 -475 0 -475 0 0 24 c0 22 4 24 76
28 79 5 109 20 146 69 36 48 39 119 36 836 -3 654 -4 700 -21 733 -31 60 -111
99 -204 100 -26 0 -33 4 -33 20 0 20 7 20 529 20 425 0 544 -3 606 -15z m1565
-4 c0 -15 -10 -19 -51 -24 -61 -7 -116 -34 -141 -68 -10 -13 -22 -48 -28 -78
-14 -73 -13 -1145 0 -1230 21 -123 94 -231 190 -280 85 -42 157 -55 275 -48
220 13 347 92 439 274 55 110 57 133 54 747 l-3 562 -27 41 c-30 46 -77 71
-148 80 -40 5 -50 10 -50 24 0 18 14 19 280 19 268 0 280 -1 280 -19 0 -15
-10 -20 -47 -26 -53 -8 -110 -34 -135 -61 -42 -47 -42 -57 -49 -654 -5 -554
-6 -578 -28 -648 -31 -104 -72 -180 -133 -247 -144 -158 -364 -224 -680 -204
-322 21 -536 162 -620 409 -22 64 -23 78 -28 675 -5 588 -6 611 -25 645 -26
45 -92 78 -173 86 -51 6 -62 10 -62 25 0 18 18 19 455 19 437 0 455 -1 455
-19z m2060 -1 c0 -15 -7 -20 -26 -20 -99 0 -175 -54 -193 -138 -14 -68 -15
-1150 -1 -1238 28 -174 138 -289 308 -325 77 -16 239 -6 324 21 158 49 277
195 319 389 6 28 8 264 7 601 -3 540 -4 556 -24 595 -25 49 -83 83 -153 92
-41 5 -51 9 -51 24 0 18 14 19 280 19 268 0 280 -1 280 -19 0 -15 -10 -20 -47
-26 -78 -11 -131 -45 -162 -100 -14 -27 -17 -97 -22 -605 -5 -545 -6 -579 -26
-651 -33 -119 -77 -195 -157 -274 -147 -145 -354 -203 -658 -184 -275 18 -490
135 -582 317 -61 121 -60 103 -66 767 -5 588 -6 611 -25 645 -26 45 -92 78
-173 86 -51 6 -62 10 -62 25 0 18 18 19 455 19 448 0 455 0 455 -20z m2310 5
c383 -67 645 -297 735 -643 38 -143 41 -330 8 -491 -63 -317 -294 -558 -613
-642 -130 -34 -231 -39 -762 -39 l-518 0 0 25 c0 24 3 25 59 25 107 0 163 38
181 124 8 35 10 273 8 771 -3 703 -3 721 -24 759 -26 50 -70 73 -155 82 -58 6
-69 9 -69 25 0 18 19 19 533 19 427 0 549 -3 617 -15z m-4905 -2492 c76 -181
145 -338 153 -351 8 -13 28 -26 44 -29 67 -13 17 -23 -122 -23 -93 0 -150 4
-150 10 0 6 11 10 24 10 14 0 31 9 40 21 16 23 12 40 -34 147 l-22 52 -130 0
-129 0 -34 -72 c-49 -101 -45 -148 12 -148 13 0 23 -4 23 -10 0 -6 -40 -10
-100 -10 -95 0 -129 11 -76 24 13 3 31 17 40 31 9 14 77 163 152 332 150 339
151 343 162 343 4 0 70 -147 147 -327z m804 285 l74 -22 17 22 c10 12 21 22
23 22 3 0 8 -26 12 -57 3 -32 8 -82 11 -110 6 -60 -5 -68 -28 -20 -45 94 -130
147 -236 147 -108 0 -180 -44 -233 -143 -33 -60 -34 -65 -34 -177 0 -102 3
-121 24 -164 30 -61 81 -113 135 -137 58 -26 153 -25 211 2 l45 21 0 112 c0
132 -9 156 -65 172 -35 11 -19 12 125 12 124 0 156 -2 130 -10 -55 -15 -60
-28 -60 -169 l0 -127 -45 -21 c-116 -55 -280 -67 -397 -31 -237 73 -327 316
-196 523 31 48 102 109 165 141 82 41 212 47 322 14z m2324 1 l61 -21 17 21
c10 12 19 21 22 21 3 0 8 -35 11 -77 4 -43 9 -95 11 -115 7 -52 -9 -48 -30 8
-36 94 -114 144 -226 144 -145 -1 -229 -104 -237 -293 -5 -111 6 -165 49 -231
81 -129 284 -142 400 -26 54 55 77 49 32 -8 -38 -47 -113 -99 -166 -113 -23
-6 -77 -9 -122 -7 -141 6 -247 74 -307 196 -30 60 -33 75 -33 157 0 76 4 98
26 146 47 100 130 173 232 204 67 21 188 18 260 -6z m-1479 -35 c9 -67 7 -104
-4 -104 -5 0 -10 9 -10 20 0 11 -13 34 -29 52 l-29 33 -131 3 -131 4 0 -136 0
-136 105 0 c99 0 107 2 130 25 14 13 25 36 25 50 0 14 5 25 10 25 6 0 10 -47
10 -120 0 -73 -4 -120 -10 -120 -5 0 -10 11 -10 25 0 14 -11 37 -25 50 -23 23
-31 25 -130 25 l-105 0 0 -129 c0 -71 5 -142 10 -156 l10 -27 124 3 c143 5
158 11 214 93 39 58 40 46 6 -56 l-26 -78 -284 0 c-188 0 -283 3 -279 10 3 6
17 10 29 10 13 0 34 9 47 19 l24 19 0 292 0 292 -24 19 c-13 10 -36 19 -52 19
-16 0 -29 5 -29 10 0 6 100 10 279 10 l278 0 7 -46z m515 -183 c111 -126 209
-235 217 -241 12 -11 14 15 14 194 0 206 0 207 -25 231 -13 14 -36 25 -50 25
-14 0 -25 5 -25 10 0 6 47 10 120 10 73 0 120 -4 120 -10 0 -5 -13 -10 -30
-10 -17 0 -39 -9 -50 -20 -19 -19 -20 -33 -20 -345 0 -179 -4 -325 -8 -325 -5
0 -30 26 -57 57 -27 31 -141 160 -252 286 l-203 228 0 -250 c0 -238 1 -252 20
-271 11 -11 33 -20 50 -20 17 0 30 -4 30 -10 0 -6 -49 -10 -126 -10 -81 0
-123 4 -119 10 3 6 17 10 29 10 13 0 34 9 47 19 l24 19 3 277 3 276 -32 30
c-18 17 -47 32 -70 35 -75 12 -38 24 74 24 l113 0 203 -229z m1481 219 c0 -5
-12 -10 -27 -10 -46 0 -59 -14 -47 -47 13 -35 164 -273 172 -273 8 1 141 219
160 262 16 37 2 58 -39 58 -16 0 -29 5 -29 10 0 6 47 10 120 10 73 0 120 -4
120 -10 0 -5 -10 -10 -23 -10 -52 0 -80 -32 -205 -234 l-93 -151 3 -118 c3
-111 5 -120 27 -138 13 -10 36 -19 52 -19 16 0 29 -4 29 -10 0 -6 -63 -10
-170 -10 -107 0 -170 4 -170 10 0 6 13 10 29 10 16 0 39 9 52 19 22 18 24 27
27 133 l3 113 -111 175 c-118 186 -147 220 -186 220 -13 0 -24 5 -24 10 0 6
62 10 165 10 103 0 165 -4 165 -10z"/>
<path d="M2150 6415 l0 -408 113 6 c269 14 379 125 379 386 1 176 -41 283
-135 348 -65 44 -128 61 -253 69 l-104 7 0 -408z"/>
<path d="M8062 6048 c3 -842 1 -807 60 -851 61 -45 271 -31 394 27 215 102
316 342 316 751 -1 248 -24 386 -91 530 -42 91 -131 194 -209 243 -90 58 -154
72 -322 72 l-151 0 3 -772z"/>
<path d="M3378 4403 l-57 -128 111 -3 c61 -1 112 -1 115 1 5 6 -100 257 -107
257 -4 0 -32 -57 -62 -127z"/>
</g>
</svg>
